<?xml version="1.0" standalone="no"?>
<!DOCTYPE svg PUBLIC "-//W3C//DTD SVG 20010904//EN"
 "http://www.w3.org/TR/2001/REC-SVG-20010904/DTD/svg10.dtd">
<svg version="1.0" xmlns="http://www.w3.org/2000/svg"
 width="200.000000pt" height="200.000000pt" viewBox="0 0 200.000000 200.000000"
 preserveAspectRatio="xMidYMid meet">
<metadata>
Created by potrace 1.10, written by Peter Selinger 2001-2011
</metadata>
<g transform="translate(0.000000,200.000000) scale(0.100000,-0.100000)"
fill="#000000" stroke="none">
<path d="M1000 1345 l0 -405 -39 19 c-97 50 -237 49 -338 -1 -53 -26 -135
-104 -159 -149 -65 -127 -58 -275 20 -392 42 -62 87 -99 164 -135 46 -21 72
-26 137 -26 44 0 98 6 121 12 96 28 192 121 236 229 23 57 23 62 23 491 0 284
3 431 10 428 6 -2 103 -29 217 -60 114 -31 213 -59 220 -61 10 -4 13 25 11
142 l-2 147 -289 77 c-159 42 -299 80 -311 84 l-21 6 0 -406z m94 359 c34 -8
68 -19 77 -24 8 -4 42 -13 75 -20 32 -6 123 -29 202 -51 79 -21 146 -39 149
-39 3 0 3 -9 0 -20 -3 -11 -2 -20 1 -20 6 0 6 -82 2 -197 0 -11 -59 2 -185 40
-117 36 -244 64 -256 56 -10 -6 -13 -104 -14 -441 l-1 -434 -31 -65 c-34 -72
-90 -142 -106 -132 -6 3 -7 1 -3 -6 5 -7 -16 -22 -60 -43 -59 -28 -78 -31
-154 -31 -71 0 -95 4 -143 26 -31 14 -57 31 -57 36 0 6 -6 11 -14 11 -19 0
-77 74 -107 135 -20 42 -24 65 -24 140 0 91 8 118 52 189 28 46 65 86 80 86 7
0 13 5 13 11 0 5 26 22 58 37 81 37 200 37 287 0 43 -19 64 -23 73 -16 9 8 12
100 12 399 0 214 3 389 7 389 4 0 34 -7 67 -16z"/>
</g>
</svg>
